<svg width="144" height="38" viewBox="0 0 144 38" fill="none" xmlns="http://www.w3.org/2000/svg">
<path d="M9.37445 28.875C8.97465 28.875 8.57465 28.7224 8.26996 28.4172L0.457459 20.6047C-0.152893 19.9944 -0.152893 19.0056 0.457459 18.3953L8.26996 10.5828C8.88031 9.97241 9.86908 9.97241 10.4794 10.5828C11.0898 11.1931 11.0898 12.1819 10.4794 12.7922L3.77142 19.5L10.4804 26.209C11.0908 26.8193 11.0908 27.8081 10.4804 28.4185C10.1752 28.7236 9.77484 28.875 9.37445 28.875Z" fill="#014FB4"/>
<g clip-path="url(#clip0_311_120)">
<path d="M12.9948 2.43279C13.5245 2.27348 14.1271 2.56909 14.3414 3.09347L26.4861 32.8385C26.6984 33.3627 26.4449 33.919 25.9151 34.0767C25.3853 34.2344 24.7804 33.9407 24.568 33.4165L12.4234 3.67041C12.2094 3.14612 12.4652 2.59219 12.9948 2.43279Z" fill="#014FB4"/>
</g>
<path d="M29.9066 30V8.82H34.6166V30H29.9066ZM33.5066 21.69V17.64H44.0966V21.69H33.5066ZM33.5066 12.87V8.82H44.5766V12.87H33.5066ZM52.8032 30.3C51.4632 30.3 50.2632 29.97 49.2032 29.31C48.1632 28.65 47.3332 27.75 46.7132 26.61C46.1132 25.47 45.8132 24.17 45.8132 22.71C45.8132 21.25 46.1132 19.95 46.7132 18.81C47.3332 17.67 48.1632 16.77 49.2032 16.11C50.2632 15.45 51.4632 15.12 52.8032 15.12C53.7832 15.12 54.6632 15.31 55.4432 15.69C56.2432 16.07 56.8932 16.6 57.3932 17.28C57.8932 17.94 58.1732 18.7 58.2332 19.56V25.86C58.1732 26.72 57.8932 27.49 57.3932 28.17C56.9132 28.83 56.2732 29.35 55.4732 29.73C54.6732 30.11 53.7832 30.3 52.8032 30.3ZM53.7332 26.16C54.7132 26.16 55.5032 25.84 56.1032 25.2C56.7032 24.54 57.0032 23.71 57.0032 22.71C57.0032 22.03 56.8632 21.43 56.5832 20.91C56.3232 20.39 55.9432 19.99 55.4432 19.71C54.9632 19.41 54.4032 19.26 53.7632 19.26C53.1232 19.26 52.5532 19.41 52.0532 19.71C51.5732 19.99 51.1832 20.39 50.8832 20.91C50.6032 21.43 50.4632 22.03 50.4632 22.71C50.4632 23.37 50.6032 23.96 50.8832 24.48C51.1632 25 51.5532 25.41 52.0532 25.71C52.5532 26.01 53.1132 26.16 53.7332 26.16ZM56.8232 30V26.07L57.5132 22.53L56.8232 18.99V15.42H61.3232V30H56.8232ZM64.555 30V15.42H69.145V30H64.555ZM69.145 21.99L67.225 20.49C67.605 18.79 68.245 17.47 69.145 16.53C70.045 15.59 71.295 15.12 72.895 15.12C73.595 15.12 74.205 15.23 74.725 15.45C75.265 15.65 75.735 15.97 76.135 16.41L73.405 19.86C73.205 19.64 72.955 19.47 72.655 19.35C72.355 19.23 72.015 19.17 71.635 19.17C70.875 19.17 70.265 19.41 69.805 19.89C69.365 20.35 69.145 21.05 69.145 21.99ZM83.1276 36.54C81.5276 36.54 80.1176 36.26 78.8976 35.7C77.6976 35.16 76.7476 34.39 76.0476 33.39L78.8676 30.57C79.3876 31.19 79.9676 31.66 80.6076 31.98C81.2676 32.3 82.0576 32.46 82.9776 32.46C84.1176 32.46 85.0076 32.18 85.6476 31.62C86.3076 31.06 86.6376 30.27 86.6376 29.25V25.53L87.4176 22.35L86.7276 19.17V15.42H91.2276V29.13C91.2276 30.63 90.8776 31.93 90.1776 33.03C89.4776 34.13 88.5176 34.99 87.2976 35.61C86.0776 36.23 84.6876 36.54 83.1276 36.54ZM82.9176 29.55C81.5776 29.55 80.3876 29.23 79.3476 28.59C78.3076 27.95 77.4876 27.08 76.8876 25.98C76.2876 24.88 75.9876 23.66 75.9876 22.32C75.9876 20.96 76.2876 19.74 76.8876 18.66C77.4876 17.56 78.3076 16.7 79.3476 16.08C80.3876 15.44 81.5776 15.12 82.9176 15.12C83.9176 15.12 84.8076 15.31 85.5876 15.69C86.3876 16.05 87.0276 16.57 87.5076 17.25C88.0076 17.91 88.2876 18.68 88.3476 19.56V25.11C88.2876 25.97 88.0076 26.74 87.5076 27.42C87.0276 28.08 86.3876 28.6 85.5876 28.98C84.7876 29.36 83.8976 29.55 82.9176 29.55ZM83.7876 25.47C84.4276 25.47 84.9776 25.33 85.4376 25.05C85.9176 24.77 86.2776 24.4 86.5176 23.94C86.7776 23.46 86.9076 22.92 86.9076 22.32C86.9076 21.72 86.7776 21.18 86.5176 20.7C86.2776 20.22 85.9176 19.84 85.4376 19.56C84.9776 19.28 84.4276 19.14 83.7876 19.14C83.1676 19.14 82.6176 19.28 82.1376 19.56C81.6576 19.84 81.2876 20.22 81.0276 20.7C80.7676 21.18 80.6376 21.72 80.6376 22.32C80.6376 22.88 80.7676 23.41 81.0276 23.91C81.2876 24.39 81.6476 24.77 82.1076 25.05C82.5876 25.33 83.1476 25.47 83.7876 25.47ZM104.097 30V21.69C104.097 20.93 103.857 20.32 103.377 19.86C102.917 19.38 102.327 19.14 101.607 19.14C101.107 19.14 100.667 19.25 100.287 19.47C99.9071 19.67 99.6071 19.97 99.3871 20.37C99.1671 20.75 99.0571 21.19 99.0571 21.69L97.2871 20.82C97.2871 19.68 97.5271 18.68 98.0071 17.82C98.4871 16.96 99.1571 16.3 100.017 15.84C100.877 15.36 101.867 15.12 102.987 15.12C104.127 15.12 105.127 15.36 105.987 15.84C106.847 16.3 107.507 16.95 107.967 17.79C108.447 18.61 108.687 19.57 108.687 20.67V30H104.097ZM94.4671 30V8.22H99.0571V30H94.4671Z" fill="white"/>
<path d="M111.635 30V15.42H116.225V30H111.635ZM113.945 13.41C113.225 13.41 112.625 13.17 112.145 12.69C111.685 12.19 111.455 11.59 111.455 10.89C111.455 10.17 111.685 9.57 112.145 9.09C112.625 8.61 113.225 8.37 113.945 8.37C114.665 8.37 115.255 8.61 115.715 9.09C116.175 9.57 116.405 10.17 116.405 10.89C116.405 11.59 116.175 12.19 115.715 12.69C115.255 13.17 114.665 13.41 113.945 13.41ZM129.087 30V21.69C129.087 20.93 128.847 20.32 128.367 19.86C127.907 19.38 127.317 19.14 126.597 19.14C126.097 19.14 125.657 19.25 125.277 19.47C124.897 19.67 124.597 19.97 124.377 20.37C124.157 20.75 124.047 21.19 124.047 21.69L122.277 20.82C122.277 19.68 122.527 18.68 123.027 17.82C123.527 16.96 124.217 16.3 125.097 15.84C125.997 15.36 127.007 15.12 128.127 15.12C129.207 15.12 130.157 15.38 130.977 15.9C131.817 16.4 132.477 17.07 132.957 17.91C133.437 18.75 133.677 19.67 133.677 20.67V30H129.087ZM119.457 30V15.42H124.047V30H119.457ZM139.505 30.33C138.725 30.33 138.075 30.06 137.555 29.52C137.035 28.98 136.775 28.33 136.775 27.57C136.775 26.77 137.035 26.11 137.555 25.59C138.075 25.05 138.725 24.78 139.505 24.78C140.305 24.78 140.955 25.05 141.455 25.59C141.975 26.11 142.235 26.77 142.235 27.57C142.235 28.33 141.975 28.98 141.455 29.52C140.955 30.06 140.305 30.33 139.505 30.33Z" fill="#014FB4"/>
<defs>
<clipPath id="clip0_311_120">
<rect width="28.3171" height="20.5315" fill="white" transform="translate(13.0014 2) rotate(32.402)"/>
</clipPath>
</defs>
</svg>
