<svg width="1197" height="1132" viewBox="0 0 1197 1132" fill="none" xmlns="http://www.w3.org/2000/svg">
<path d="M967.37 237.963C1061.32 338.557 1140.09 436.304 1175.2 553.031C1211.26 670.707 1203.67 808.312 1141.04 911.753C1078.4 1015.19 961.676 1085.42 842.102 1113.89C721.579 1143.31 600.107 1130.97 457.757 1107.25C316.356 1083.52 155.026 1048.41 72.4632 947.815C-10.0998 847.221 -13.8958 681.146 20.2682 526.459C53.4832 371.772 125.607 229.422 237.589 131.675C349.571 33.9278 501.411 -19.2162 632.373 6.40678C763.335 32.0298 872.47 136.42 967.37 237.963Z" fill="url(#paint0_linear_311_58)"/>
<defs>
<linearGradient id="paint0_linear_311_58" x1="118.5" y1="976.5" x2="898" y2="409" gradientUnits="userSpaceOnUse">
<stop stop-color="#014FB4"/>
<stop offset="1" stop-color="#01003A"/>
</linearGradient>
</defs>
</svg>
