<svg width="144" height="38" viewBox="0 0 144 38" fill="none" xmlns="http://www.w3.org/2000/svg">
<path d="M9.37451 28.875C8.97471 28.875 8.57471 28.7224 8.27002 28.4172L0.45752 20.6047C-0.152832 19.9944 -0.152832 19.0056 0.45752 18.3953L8.27002 10.5828C8.88037 9.97241 9.86914 9.97241 10.4795 10.5828C11.0898 11.1931 11.0898 12.1819 10.4795 12.7922L3.77149 19.5L10.4805 26.209C11.0908 26.8193 11.0908 27.8081 10.4805 28.4185C10.1753 28.7236 9.7749 28.875 9.37451 28.875Z" fill="#FFBE02"/>
<g clip-path="url(#clip0_312_388)">
<path d="M12.9948 2.43279C13.5245 2.27348 14.1271 2.56909 14.3414 3.09347L26.4861 32.8385C26.6984 33.3627 26.4449 33.919 25.9151 34.0767C25.3853 34.2344 24.7804 33.9407 24.568 33.4165L12.4234 3.67041C12.2094 3.14612 12.4652 2.59219 12.9948 2.43279Z" fill="#FFBE02"/>
</g>
<path d="M29.9067 30V8.82H34.6167V30H29.9067ZM33.5067 21.69V17.64H44.0967V21.69H33.5067ZM33.5067 12.87V8.82H44.5767V12.87H33.5067ZM52.8033 30.3C51.4633 30.3 50.2633 29.97 49.2033 29.31C48.1633 28.65 47.3333 27.75 46.7133 26.61C46.1133 25.47 45.8133 24.17 45.8133 22.71C45.8133 21.25 46.1133 19.95 46.7133 18.81C47.3333 17.67 48.1633 16.77 49.2033 16.11C50.2633 15.45 51.4633 15.12 52.8033 15.12C53.7833 15.12 54.6633 15.31 55.4433 15.69C56.2433 16.07 56.8933 16.6 57.3933 17.28C57.8933 17.94 58.1733 18.7 58.2333 19.56V25.86C58.1733 26.72 57.8933 27.49 57.3933 28.17C56.9133 28.83 56.2733 29.35 55.4733 29.73C54.6733 30.11 53.7833 30.3 52.8033 30.3ZM53.7333 26.16C54.7133 26.16 55.5033 25.84 56.1033 25.2C56.7033 24.54 57.0033 23.71 57.0033 22.71C57.0033 22.03 56.8633 21.43 56.5833 20.91C56.3233 20.39 55.9433 19.99 55.4433 19.71C54.9633 19.41 54.4033 19.26 53.7633 19.26C53.1233 19.26 52.5533 19.41 52.0533 19.71C51.5733 19.99 51.1833 20.39 50.8833 20.91C50.6033 21.43 50.4633 22.03 50.4633 22.71C50.4633 23.37 50.6033 23.96 50.8833 24.48C51.1633 25 51.5533 25.41 52.0533 25.71C52.5533 26.01 53.1133 26.16 53.7333 26.16ZM56.8233 30V26.07L57.5133 22.53L56.8233 18.99V15.42H61.3233V30H56.8233ZM64.5551 30V15.42H69.1451V30H64.5551ZM69.1451 21.99L67.2251 20.49C67.6051 18.79 68.2451 17.47 69.1451 16.53C70.0451 15.59 71.2951 15.12 72.8951 15.12C73.5951 15.12 74.2051 15.23 74.7251 15.45C75.2651 15.65 75.7351 15.97 76.1351 16.41L73.4051 19.86C73.2051 19.64 72.9551 19.47 72.6551 19.35C72.3551 19.23 72.0151 19.17 71.6351 19.17C70.8751 19.17 70.2651 19.41 69.8051 19.89C69.3651 20.35 69.1451 21.05 69.1451 21.99ZM83.1276 36.54C81.5276 36.54 80.1176 36.26 78.8976 35.7C77.6976 35.16 76.7476 34.39 76.0476 33.39L78.8676 30.57C79.3876 31.19 79.9676 31.66 80.6076 31.98C81.2676 32.3 82.0576 32.46 82.9776 32.46C84.1176 32.46 85.0076 32.18 85.6476 31.62C86.3076 31.06 86.6376 30.27 86.6376 29.25V25.53L87.4176 22.35L86.7276 19.17V15.42H91.2276V29.13C91.2276 30.63 90.8776 31.93 90.1776 33.03C89.4776 34.13 88.5176 34.99 87.2976 35.61C86.0776 36.23 84.6876 36.54 83.1276 36.54ZM82.9176 29.55C81.5776 29.55 80.3876 29.23 79.3476 28.59C78.3076 27.95 77.4876 27.08 76.8876 25.98C76.2876 24.88 75.9876 23.66 75.9876 22.32C75.9876 20.96 76.2876 19.74 76.8876 18.66C77.4876 17.56 78.3076 16.7 79.3476 16.08C80.3876 15.44 81.5776 15.12 82.9176 15.12C83.9176 15.12 84.8076 15.31 85.5876 15.69C86.3876 16.05 87.0276 16.57 87.5076 17.25C88.0076 17.91 88.2876 18.68 88.3476 19.56V25.11C88.2876 25.97 88.0076 26.74 87.5076 27.42C87.0276 28.08 86.3876 28.6 85.5876 28.98C84.7876 29.36 83.8976 29.55 82.9176 29.55ZM83.7876 25.47C84.4276 25.47 84.9776 25.33 85.4376 25.05C85.9176 24.77 86.2776 24.4 86.5176 23.94C86.7776 23.46 86.9076 22.92 86.9076 22.32C86.9076 21.72 86.7776 21.18 86.5176 20.7C86.2776 20.22 85.9176 19.84 85.4376 19.56C84.9776 19.28 84.4276 19.14 83.7876 19.14C83.1676 19.14 82.6176 19.28 82.1376 19.56C81.6576 19.84 81.2876 20.22 81.0276 20.7C80.7676 21.18 80.6376 21.72 80.6376 22.32C80.6376 22.88 80.7676 23.41 81.0276 23.91C81.2876 24.39 81.6476 24.77 82.1076 25.05C82.5876 25.33 83.1476 25.47 83.7876 25.47ZM104.097 30V21.69C104.097 20.93 103.857 20.32 103.377 19.86C102.917 19.38 102.327 19.14 101.607 19.14C101.107 19.14 100.667 19.25 100.287 19.47C99.9072 19.67 99.6072 19.97 99.3872 20.37C99.1672 20.75 99.0572 21.19 99.0572 21.69L97.2872 20.82C97.2872 19.68 97.5272 18.68 98.0072 17.82C98.4872 16.96 99.1572 16.3 100.017 15.84C100.877 15.36 101.867 15.12 102.987 15.12C104.127 15.12 105.127 15.36 105.987 15.84C106.847 16.3 107.507 16.95 107.967 17.79C108.447 18.61 108.687 19.57 108.687 20.67V30H104.097ZM94.4672 30V8.22H99.0572V30H94.4672Z" fill="#6546E9"/>
<path d="M111.635 30V15.42H116.225V30H111.635ZM113.945 13.41C113.225 13.41 112.625 13.17 112.145 12.69C111.685 12.19 111.455 11.59 111.455 10.89C111.455 10.17 111.685 9.57 112.145 9.09C112.625 8.61 113.225 8.37 113.945 8.37C114.665 8.37 115.255 8.61 115.715 9.09C116.175 9.57 116.405 10.17 116.405 10.89C116.405 11.59 116.175 12.19 115.715 12.69C115.255 13.17 114.665 13.41 113.945 13.41ZM129.087 30V21.69C129.087 20.93 128.847 20.32 128.367 19.86C127.907 19.38 127.317 19.14 126.597 19.14C126.097 19.14 125.657 19.25 125.277 19.47C124.897 19.67 124.597 19.97 124.377 20.37C124.157 20.75 124.047 21.19 124.047 21.69L122.277 20.82C122.277 19.68 122.527 18.68 123.027 17.82C123.527 16.96 124.217 16.3 125.097 15.84C125.997 15.36 127.007 15.12 128.127 15.12C129.207 15.12 130.157 15.38 130.977 15.9C131.817 16.4 132.477 17.07 132.957 17.91C133.437 18.75 133.677 19.67 133.677 20.67V30H129.087ZM119.457 30V15.42H124.047V30H119.457ZM139.505 30.33C138.725 30.33 138.075 30.06 137.555 29.52C137.035 28.98 136.775 28.33 136.775 27.57C136.775 26.77 137.035 26.11 137.555 25.59C138.075 25.05 138.725 24.78 139.505 24.78C140.305 24.78 140.955 25.05 141.455 25.59C141.975 26.11 142.235 26.77 142.235 27.57C142.235 28.33 141.975 28.98 141.455 29.52C140.955 30.06 140.305 30.33 139.505 30.33Z" fill="#FFBE02"/>
<defs>
<clipPath id="clip0_312_388">
<rect width="28.3171" height="20.5315" fill="white" transform="translate(13.0015 2) rotate(32.402)"/>
</clipPath>
</defs>
</svg>
