<svg width="1440" height="320" viewBox="0 0 1440 320" fill="none" xmlns="http://www.w3.org/2000/svg">
<g clip-path="url(#clip0_460_37)">
<path d="M0 160L48 138.7C96 117 192 75.0002 288 64.0002C384 53.0002 480 75.0002 576 106.7C672 139 768 181 864 165.3C960 149 1056 75.0002 1152 48.0002C1248 21.0002 1344 43.0002 1392 53.3002L1440 64.0002V320H1392C1344 320 1248 320 1152 320C1056 320 960 320 864 320C768 320 672 320 576 320C480 320 384 320 288 320C192 320 96 320 48 320H0V160Z" fill="#014FB4"/>
</g>
<defs>
<clipPath id="clip0_460_37">
<rect width="1440" height="320" fill="white"/>
</clipPath>
</defs>
</svg>
